<?xml version="1.0" encoding="iso-8859-1"?>
<!-- Uploaded to: SVG Repo, www.svgrepo.com, Generator: SVG Repo Mixer Tools -->
<svg fill="#000000" height="800px" width="800px" version="1.1" id="Layer_1" xmlns="http://www.w3.org/2000/svg" xmlns:xlink="http://www.w3.org/1999/xlink" 
	 viewBox="0 0 301.295 301.295" xml:space="preserve">
<g>
	<g>
		<g>
			<path d="M124.343,144.259H64.464c-3.959,0-7.169,3.209-7.169,7.169s3.21,7.169,7.169,7.169h59.879
				c3.959,0,7.168-3.209,7.168-7.169S128.302,144.259,124.343,144.259z"/>
			<path d="M124.343,113.89H64.464c-3.959,0-7.169,3.209-7.169,7.169s3.21,7.168,7.169,7.168h59.879
				c3.959,0,7.168-3.209,7.168-7.168S128.302,113.89,124.343,113.89z"/>
			<path d="M294.127,82.109h-50.398c-12.988-8.554-28.027-13.064-43.648-13.064c-15.62,0-30.659,4.509-43.647,13.064H7.168
				C3.21,82.109,0,85.319,0,89.278c0,39.52,0,79.039,0,118.559c0,3.959,3.21,7.169,7.168,7.169H33v10.075
				c0,3.96,3.21,7.169,7.168,7.169c3.959,0,7.169-3.21,7.169-7.169v-10.075h109.097c12.988,8.554,28.027,13.064,43.647,13.064
				c15.62,0,30.66-4.509,43.648-13.064h10.229v10.075c0,3.96,3.21,7.169,7.168,7.169c3.959,0,7.169-3.209,7.169-7.169v-10.075
				h25.831c3.959,0,7.169-3.21,7.169-7.169V89.278C301.295,85.318,298.086,82.109,294.127,82.109z M286.958,200.669h-45.432
				c-1.471,0-2.908,0.453-4.113,1.297c-10.989,7.698-23.898,11.766-37.331,11.766c-13.432,0-26.341-4.069-37.331-11.766
				c-1.205-0.844-2.641-1.297-4.113-1.297H81.077l11.071-11.07c2.8-2.8,2.8-7.338,0.001-10.138c-2.8-2.8-7.339-2.799-10.138,0
				l-21.208,21.208h-37.02l20.149-20.148c2.799-2.8,2.799-7.338-0.001-10.138s-7.338-2.8-10.138,0l-19.454,19.455V151.82
				l20.402-20.402c2.799-2.8,2.799-7.338,0-10.138c-2.8-2.8-7.339-2.8-10.138,0l-10.264,10.264V96.446h144.3
				c1.471,0,2.908-0.453,4.113-1.297c10.989-7.698,23.898-11.766,37.331-11.766c13.433,0,26.342,4.069,37.331,11.766
				c1.205,0.844,2.641,1.297,4.113,1.297h45.432V200.669z"/>
			<path d="M199.909,96.433c-28.742,0-52.125,23.383-52.125,52.125c0,28.742,23.383,52.125,52.125,52.125
				c28.742,0,52.126-23.383,52.126-52.125S228.651,96.433,199.909,96.433z M199.909,186.346c-20.836,0-37.788-16.952-37.788-37.788
				c0-20.836,16.952-37.788,37.788-37.788c20.837,0,37.788,16.952,37.788,37.788C237.697,169.395,220.745,186.346,199.909,186.346z"
				/>
		</g>
	</g>
</g>
</svg>